<?xml version="1.0" encoding="UTF-8" standalone="no"?>
<!-- Created with Inkscape (http://www.inkscape.org/) -->

<svg
   xmlns:dc="http://purl.org/dc/elements/1.1/"
   xmlns:cc="http://creativecommons.org/ns#"
   xmlns:rdf="http://www.w3.org/1999/02/22-rdf-syntax-ns#"
   xmlns:svg="http://www.w3.org/2000/svg"
   xmlns="http://www.w3.org/2000/svg"
   xmlns:sodipodi="http://sodipodi.sourceforge.net/DTD/sodipodi-0.dtd"
   xmlns:inkscape="http://www.inkscape.org/namespaces/inkscape"
   width="954.14624"
   height="210.6758"
   viewBox="0 0 252.45119 55.741306"
   version="1.1"
   id="svg5087"
   inkscape:version="0.92.2 (5c3e80d, 2017-08-06)"
   sodipodi:docname="happy-brain-text-logo.svg">
  <defs
     id="defs5081" />
  <sodipodi:namedview
     id="base"
     pagecolor="#ffffff"
     bordercolor="#666666"
     borderopacity="1.0"
     inkscape:pageopacity="0.0"
     inkscape:pageshadow="2"
     inkscape:zoom="1"
     inkscape:cx="614.01906"
     inkscape:cy="256.71917"
     inkscape:document-units="mm"
     inkscape:current-layer="g922"
     showgrid="false"
     fit-margin-top="0"
     fit-margin-left="0"
     fit-margin-right="0"
     fit-margin-bottom="0"
     inkscape:window-width="1920"
     inkscape:window-height="1028"
     inkscape:window-x="1272"
     inkscape:window-y="-8"
     inkscape:window-maximized="1"
     units="px" />
  <metadata
     id="metadata5084">
    <rdf:RDF>
      <cc:Work
         rdf:about="">
        <dc:format>image/svg+xml</dc:format>
        <dc:type
           rdf:resource="http://purl.org/dc/dcmitype/StillImage" />
        <dc:title></dc:title>
      </cc:Work>
    </rdf:RDF>
  </metadata>
  <g
     inkscape:label="Layer 1"
     inkscape:groupmode="layer"
     id="layer1"
     transform="translate(-20.724723,-95.260299)">
    <g
       style="display:inline"
       id="g5030"
       transform="translate(-45.005964,-67.388021)">
      <path
         inkscape:connector-curvature="0"
         id="path4621-8"
         d="m 95.566776,165.64836 a 12.095239,12.095239 0 0 0 -10.084657,5.43016 8.8824405,8.8824405 0 0 0 -2.955374,-0.51625 8.8824405,8.8824405 0 0 0 -8.882663,8.88215 8.8824405,8.8824405 0 0 0 0.219109,1.92908 11.90625,11.90625 0 0 0 -5.132504,9.78855 11.90625,11.90625 0 0 0 3.9672,8.8532 c 0.04978,0.14826 0.08984,0.27805 0.148312,0.44235 0.488347,1.3722 1.657535,3.11316 3.816821,4.19148 0.03726,0.018 0.07493,0.0348 0.11317,0.0506 0.672994,0.28896 0.890198,0.54713 1.064535,0.87488 0.174337,0.32776 0.287274,0.8294 0.271301,1.54926 -0.03194,1.43972 -0.641657,3.54772 -1.144632,5.65237 -0.591405,2.49576 2.892695,3.74935 4.027143,1.44901 1.357601,-2.76304 3.119162,-5.69247 4.928899,-8.27702 a 5.7641368,5.7641368 0 0 0 2.726449,0.68782 5.7641368,5.7641368 0 0 0 3.878316,-1.50844 8.8824405,8.8824405 0 0 0 6.076114,2.41122 8.8824405,8.8824405 0 0 0 6.014625,-2.36109 10.205358,10.205358 0 0 0 4.24211,0.93689 10.205358,10.205358 0 0 0 9.49297,-6.46524 10.961308,10.961308 0 0 0 7.24865,-10.29911 10.961308,10.961308 0 0 0 -7.14634,-10.26862 11.528275,11.528275 0 0 0 -11.36106,-9.65368 11.528275,11.528275 0 0 0 -2.50062,0.28371 12.095239,12.095239 0 0 0 -9.027874,-4.06332 z"
         style="opacity:1;vector-effect:none;fill:#fd80cd;fill-opacity:1;stroke:#76014b;stroke-width:6;stroke-linecap:round;stroke-linejoin:round;stroke-miterlimit:4;stroke-dasharray:none;stroke-dashoffset:0;stroke-opacity:1;paint-order:stroke fill markers" />
      <g
         transform="translate(-0.56126601,1.122532)"
         id="g4811">
        <path
           style="opacity:1;vector-effect:none;fill:none;fill-opacity:1;stroke:#000000;stroke-width:3;stroke-linecap:round;stroke-linejoin:miter;stroke-miterlimit:4;stroke-dasharray:none;stroke-dashoffset:0;stroke-opacity:1;paint-order:markers fill stroke"
           d="m 102.38543,185.10482 c 0,-2.54611 2.0996,-4.61012 4.68959,-4.61012 2.59,0 4.6896,2.06401 4.6896,4.61012"
           id="path4548-3"
           inkscape:connector-curvature="0"
           sodipodi:nodetypes="csc" />
        <path
           style="opacity:1;vector-effect:none;fill:none;fill-opacity:1;stroke:#000000;stroke-width:3;stroke-linecap:round;stroke-linejoin:miter;stroke-miterlimit:4;stroke-dasharray:none;stroke-dashoffset:0;stroke-opacity:1;paint-order:markers fill stroke"
           d="m 87.219309,185.10482 c 0,-2.54611 2.0996,-4.61012 4.6896,-4.61012 2.58999,0 4.6896,2.06401 4.6896,4.61012"
           id="path4548-4-6"
           inkscape:connector-curvature="0"
           sodipodi:nodetypes="csc" />
      </g>
      <g
         transform="matrix(0.40762027,0.23220467,-0.23220467,0.40762027,96.51767,122.1701)"
         id="g4763-7-1">
        <path
           style="opacity:1;vector-effect:none;fill:none;fill-opacity:1;stroke:#76014b;stroke-width:4.26330423;stroke-linecap:round;stroke-linejoin:miter;stroke-miterlimit:4;stroke-dasharray:none;stroke-dashoffset:0;stroke-opacity:1;paint-order:normal"
           d="m 34.903401,154.78645 c 4e-6,-3.17822 2.576465,-5.75468 5.754688,-5.75468 3.178223,0 5.754683,2.57646 5.754687,5.75468"
           id="path1031-8-7"
           inkscape:connector-curvature="0"
           sodipodi:nodetypes="csc" />
        <path
           style="opacity:1;vector-effect:none;fill:none;fill-opacity:1;stroke:#76014b;stroke-width:4.26330423;stroke-linecap:round;stroke-linejoin:miter;stroke-miterlimit:4;stroke-dasharray:none;stroke-dashoffset:0;stroke-opacity:1;paint-order:normal"
           d="m 46.412778,154.78645 c 4e-6,-3.17822 2.576464,-5.75468 5.754687,-5.75468 3.178223,0 5.754684,2.57646 5.754688,5.75468"
           id="path1031-6-4-6"
           inkscape:connector-curvature="0"
           sodipodi:nodetypes="csc" />
        <path
           style="opacity:1;vector-effect:none;fill:none;fill-opacity:1;stroke:#76014b;stroke-width:4.26330423;stroke-linecap:round;stroke-linejoin:miter;stroke-miterlimit:4;stroke-dasharray:none;stroke-dashoffset:0;stroke-opacity:1;paint-order:normal"
           d="m 57.922151,154.78645 c 4e-6,-3.17822 2.576464,-5.75468 5.754687,-5.75468 3.178223,0 5.754683,2.57646 5.754687,5.75468"
           id="path1031-6-5-4-8"
           inkscape:connector-curvature="0"
           sodipodi:nodetypes="csc" />
      </g>
      <g
         transform="matrix(0.66664845,0.35157178,-0.35157178,0.66664845,124.49807,77.291184)"
         id="g4870">
        <g
           transform="translate(1.1871597,-0.47287401)"
           id="g4875">
          <path
             sodipodi:nodetypes="cccc"
             inkscape:connector-curvature="0"
             id="path4813"
             d="m 51.257107,153.69652 c 0.700706,0.45216 1.529774,0.70758 2.40122,0.70788 2.447598,1e-5 4.431768,-1.98416 4.431767,-4.43176 -5.29e-4,-1.78974 -1.07753,-3.40348 -2.730069,-4.09071"
             style="opacity:1;vector-effect:none;fill:none;fill-opacity:1;stroke:#76014b;stroke-width:2.65367103;stroke-linecap:round;stroke-linejoin:miter;stroke-miterlimit:4;stroke-dasharray:none;stroke-dashoffset:0;stroke-opacity:1;paint-order:normal" />
          <path
             inkscape:connector-curvature="0"
             id="path4858"
             d="m 52.900509,154.55746 a 3.6950012,3.6950012 0 0 1 0.326215,1.518 v 0 a 3.6950012,3.6950012 0 0 1 -3.694998,3.695 3.6950012,3.6950012 0 0 1 -2.159755,-0.69692"
             style="opacity:1;vector-effect:none;fill:none;fill-opacity:1;stroke:#76014b;stroke-width:2.65367103;stroke-linecap:round;stroke-linejoin:miter;stroke-miterlimit:4;stroke-dasharray:none;stroke-dashoffset:0;stroke-opacity:1;paint-order:normal" />
          <path
             inkscape:connector-curvature="0"
             id="path4865"
             d="m 43.630199,155.33177 c 2.066523,0 3.74177,1.67525 3.741772,3.74177 v 0 c -2e-6,2.06652 -1.675249,3.74177 -3.741772,3.74177 -0.105246,0 -0.210445,-0.004 -0.315317,-0.0133"
             style="opacity:1;vector-effect:none;fill:none;fill-opacity:1;stroke:#76014b;stroke-width:2.65367103;stroke-linecap:round;stroke-linejoin:miter;stroke-miterlimit:4;stroke-dasharray:none;stroke-dashoffset:0;stroke-opacity:1;paint-order:normal"
             sodipodi:nodetypes="ccccc" />
        </g>
      </g>
      <path
         inkscape:connector-curvature="0"
         id="path4877"
         d="m 78.357878,180.04587 a 4.1010416,4.1010416 0 0 1 0.03483,-2.03291 4.1010416,4.1010416 0 0 1 5.039564,-2.87052 4.1010416,4.1010416 0 0 1 0.96051,0.40028"
         style="opacity:1;vector-effect:none;fill:none;fill-opacity:1;stroke:#76014b;stroke-width:2;stroke-linecap:round;stroke-linejoin:miter;stroke-miterlimit:4;stroke-dasharray:none;stroke-dashoffset:0;stroke-opacity:1;paint-order:normal" />
      <g
         transform="rotate(-130.10299,92.092809,182.72033)"
         id="g4906">
        <path
           style="opacity:1;vector-effect:none;fill:none;fill-opacity:1;stroke:#76014b;stroke-width:2;stroke-linecap:round;stroke-linejoin:miter;stroke-miterlimit:4;stroke-dasharray:none;stroke-dashoffset:0;stroke-opacity:1;paint-order:normal"
           d="m 99.615624,191.89427 c 0,2.88598 -2.339546,5.22552 -5.225521,5.22552"
           id="path4884"
           inkscape:connector-curvature="0"
           sodipodi:nodetypes="cc" />
        <path
           style="opacity:1;vector-effect:none;fill:none;fill-opacity:1;stroke:#76014b;stroke-width:2;stroke-linecap:round;stroke-linejoin:miter;stroke-miterlimit:4;stroke-dasharray:none;stroke-dashoffset:0;stroke-opacity:1;paint-order:normal"
           d="m 103.18166,189.83672 c -1.02035,1.02035 -2.35768,1.53053 -3.695008,1.53053 -1.337328,0 -2.674654,-0.51017 -3.695,-1.53052"
           id="path4884-3"
           inkscape:connector-curvature="0"
           sodipodi:nodetypes="csc" />
      </g>
      <g
         transform="translate(18.785417,-4.3656249)"
         id="g4932">
        <path
           style="opacity:1;vector-effect:none;fill:none;fill-opacity:1;stroke:#76014b;stroke-width:2;stroke-linecap:round;stroke-linejoin:miter;stroke-miterlimit:4;stroke-dasharray:none;stroke-dashoffset:0;stroke-opacity:1;paint-order:normal"
           d="m 99.294253,197.89987 a 5.238483,5.238483 0 0 0 2.595597,-4.26218"
           id="path4908-6"
           inkscape:connector-curvature="0" />
      </g>
    </g>
    <g
       aria-label="Neat Minds"
       style="font-style:normal;font-variant:normal;font-weight:normal;font-stretch:normal;font-size:50.79999924px;line-height:1.25;font-family:'Blogger Sans';-inkscape-font-specification:'Blogger Sans, Normal';font-variant-ligatures:normal;font-variant-caps:normal;font-variant-numeric:normal;font-feature-settings:normal;text-align:start;letter-spacing:0px;word-spacing:0px;writing-mode:lr-tb;text-anchor:start;fill:#000000;fill-opacity:1;stroke:none;stroke-width:0.26458332"
       id="text5678">
      <g
         id="g922">
        <g
           id="g933">
          <path
             inkscape:connector-curvature="0"
             id="path865"
             style="font-style:normal;font-variant:normal;font-weight:normal;font-stretch:normal;font-size:50.79999924px;line-height:1.25;font-family:'Blogger Sans';-inkscape-font-specification:'Blogger Sans, Normal';font-variant-ligatures:normal;font-variant-caps:normal;font-variant-numeric:normal;font-feature-settings:normal;text-align:start;letter-spacing:0px;word-spacing:0px;writing-mode:lr-tb;text-anchor:start;fill:#000000;fill-opacity:1;stroke:none;stroke-width:0.07000434"
             d="m 96.344612,118.79179 c 0,-0.4064 -0.0508,-0.9144 -0.1524,-1.4732 1.727196,-1.3208 3.657597,-2.1336 5.638788,-2.1336 3.048,0 4.6736,2.1844 4.6736,6.0452 v 14.8336 c 0,1.0668 0.7112,1.9304 1.9812,1.9304 1.27,0 1.9812,-0.8636 1.9812,-1.9304 v -14.8336 c 0,-5.7404 -2.6924,-9.6012 -8.0772,-9.6012 -2.438391,0 -5.029188,0.7112 -7.264388,2.286 -0.5588,-0.8636 -1.2192,-1.4732 -2.1336,-1.4732 -1.0668,0 -1.8796,0.762 -1.8796,1.778 0,0.508 0.254,0.8128 0.3556,1.016 0.4572,0.762 0.9144,0.762 0.9144,3.556 v 17.272 c 0,1.0668 0.6604,1.9304 1.9812,1.9304 1.3208,0 1.9812,-0.8636 1.9812,-1.9304 z" />
          <path
             inkscape:connector-curvature="0"
             id="path867"
             style="font-style:normal;font-variant:normal;font-weight:normal;font-stretch:normal;font-size:50.79999924px;line-height:1.25;font-family:'Blogger Sans';-inkscape-font-specification:'Blogger Sans, Normal';font-variant-ligatures:normal;font-variant-caps:normal;font-variant-numeric:normal;font-feature-settings:normal;text-align:start;letter-spacing:0px;word-spacing:0px;writing-mode:lr-tb;text-anchor:start;fill:#000000;fill-opacity:1;stroke:none;stroke-width:0.07000434"
             d="m 122.30783,134.53979 c -3.6576,0 -5.5372,-1.8288 -5.5372,-4.6736 v -2.9972 c 1.778,0.3048 3.6576,0.4572 5.1816,0.4572 6.0452,0 8.5852,-2.8448 8.5852,-7.5184 0,-5.0292 -2.794,-8.2804 -8.4328,-8.2804 -6.0452,0 -9.2964,3.7084 -9.2964,8.5852 v 9.4996 c 0,4.7752 3.302,8.4328 9.0424,8.4328 2.7432,0 8.2296,-0.8128 8.2296,-3.302 0,-0.9144 -0.762,-1.778 -1.778,-1.778 -0.3556,0 -0.6096,0.1016 -0.7112,0.1524 -1.778,0.8128 -3.1496,1.4224 -5.2832,1.4224 z m 4.318,-14.732 c 0,2.0828 -0.6604,4.1656 -4.5212,4.1656 -1.016,0 -3.4544,-0.1016 -5.334,-0.3556 v -3.8608 c 0,-2.8448 1.9304,-4.6228 5.2324,-4.6228 2.9464,0 4.6228,1.3716 4.6228,4.6736 z" />
          <path
             inkscape:connector-curvature="0"
             id="path869"
             style="font-style:normal;font-variant:normal;font-weight:normal;font-stretch:normal;font-size:50.79999924px;line-height:1.25;font-family:'Blogger Sans';-inkscape-font-specification:'Blogger Sans, Normal';font-variant-ligatures:normal;font-variant-caps:normal;font-variant-numeric:normal;font-feature-settings:normal;text-align:start;letter-spacing:0px;word-spacing:0px;writing-mode:lr-tb;text-anchor:start;fill:#000000;fill-opacity:1;stroke:none;stroke-width:0.07000434"
             d="m 145.33452,123.36379 c -1.5748,-0.4572 -3.302,-0.7112 -5.1308,-0.7112 -5.9944,0 -8.9408,2.54 -8.9408,7.5184 v 0.2032 c 0,4.572 2.54,7.6708 7.7724,7.6708 2.7432,0 5.0292,-0.9144 6.9596,-2.6924 0.762,1.5748 2.1336,2.54 3.81,2.54 1.1176,0 2.286,-0.4572 2.286,-1.7272 0,-0.8636 -0.508,-1.7272 -1.4732,-1.7272 -0.2032,0 -0.254,0.0508 -0.4064,0.0508 -0.6096,0 -0.9144,-0.508 -0.9144,-1.524 v -11.176 c 0,-6.7056 -2.54,-10.2616 -8.89,-10.2616 -3.5052,0 -7.3152,0.9652 -7.112,3.302 0.0508,0.762 0.4572,1.6764 1.4224,1.6764 0.5588,0 1.1684,-0.3556 1.3208,-0.4064 1.1176,-0.6096 2.0828,-1.0668 3.8608,-1.0668 3.6576,0 5.4356,1.7272 5.4356,5.4356 z m -5.1816,2.6416 c 1.524,0 3.5052,0.254 5.1816,0.762 v 5.4864 c -1.778,1.524 -3.5052,2.2352 -5.6896,2.2352 -3.4036,0 -4.4704,-1.6764 -4.4704,-4.064 v -0.2032 c 0,-2.286 0.8128,-4.2164 4.9784,-4.2164 z" />
          <path
             inkscape:connector-curvature="0"
             id="path871"
             style="font-style:normal;font-variant:normal;font-weight:normal;font-stretch:normal;font-size:50.79999924px;line-height:1.25;font-family:'Blogger Sans';-inkscape-font-specification:'Blogger Sans, Normal';font-variant-ligatures:normal;font-variant-caps:normal;font-variant-numeric:normal;font-feature-settings:normal;text-align:start;letter-spacing:0px;word-spacing:0px;writing-mode:lr-tb;text-anchor:start;fill:#000000;fill-opacity:1;stroke:none;stroke-width:0.07000434"
             d="m 152.44759,127.32619 c 0,7.0104 1.7272,10.5156 8.8392,10.5156 1.4224,0 2.8956,-0.2032 2.8956,-1.9304 0,-1.6256 -1.4732,-1.8288 -2.6416,-1.8288 -0.3048,0 -0.6604,0.0508 -0.9652,0.0508 -3.6576,0 -4.1656,-1.9304 -4.1656,-7.1628 v -10.1092 h 5.2832 c 1.016,0 1.8288,-0.8128 1.8288,-1.8796 0,-1.0668 -0.8128,-1.8796 -1.8288,-1.8796 h -5.2832 v -7.0104 c 0,-1.0668 -0.7112,-1.9304 -1.9812,-1.9304 -1.27,0 -1.9812,0.8636 -1.9812,1.9304 z" />
          <path
             inkscape:connector-curvature="0"
             id="path873"
             style="font-style:normal;font-variant:normal;font-weight:normal;font-stretch:normal;font-size:50.79999924px;line-height:1.25;font-family:'Blogger Sans';-inkscape-font-specification:'Blogger Sans, Normal';font-variant-ligatures:normal;font-variant-caps:normal;font-variant-numeric:normal;font-feature-settings:normal;text-align:start;letter-spacing:0px;word-spacing:0px;writing-mode:lr-tb;text-anchor:start;fill:#000000;fill-opacity:1;stroke:none;stroke-width:0.07000434"
             d="m 200.34827,136.06379 c 0,1.0668 0.6604,1.9304 1.9812,1.9304 1.3208,0 1.9812,-0.8636 1.9812,-1.9304 v -15.9004 c 0,-5.1308 -2.9972,-8.636 -8.4836,-8.636 -2.8448,0 -5.2324,0.9652 -7.366,2.5908 -1.27,-1.6764 -3.0988,-2.5908 -5.8928,-2.5908 -2.6416,0 -5.1816,0.8636 -7.4168,2.286 -0.508,-0.8128 -1.1684,-1.3716 -2.032,-1.3716 -1.0668,0 -1.8796,0.762 -1.8796,1.778 0,0.508 0.254,0.8128 0.3556,1.016 0.4572,0.762 0.9144,0.762 0.9144,3.556 v 17.272 c 0,1.0668 0.6604,1.9304 1.9812,1.9304 1.3208,0 1.9812,-0.8636 1.9812,-1.9304 v -17.272 c 0,-0.4572 -0.0508,-0.9652 -0.1524,-1.5748 1.4224,-1.0668 3.6576,-2.032 5.8928,-2.032 3.6068,0 4.2164,2.54 4.2164,6.1468 v 14.732 c 0,1.0668 0.6604,1.9304 1.9812,1.9304 1.3208,0 1.9812,-0.8636 1.9812,-1.9304 v -15.9004 c 0,-0.8128 -0.1016,-1.5748 -0.254,-2.286 1.2192,-1.524 3.4036,-2.6924 5.588,-2.6924 3.0988,0 4.6228,2.2352 4.6228,5.08 z" />
          <path
             inkscape:connector-curvature="0"
             id="path875"
             style="font-style:normal;font-variant:normal;font-weight:normal;font-stretch:normal;font-size:50.79999924px;line-height:1.25;font-family:'Blogger Sans';-inkscape-font-specification:'Blogger Sans, Normal';font-variant-ligatures:normal;font-variant-caps:normal;font-variant-numeric:normal;font-feature-settings:normal;text-align:start;letter-spacing:0px;word-spacing:0px;writing-mode:lr-tb;text-anchor:start;fill:#000000;fill-opacity:1;stroke:none;stroke-width:0.07000434"
             d="m 211.96083,103.70419 c 0,-1.3716 -1.0668,-2.4384 -2.4384,-2.4384 -1.3716,0 -2.4384,1.0668 -2.4384,2.4384 0,1.3208 1.0668,2.4384 2.4384,2.4384 1.3716,0 2.4384,-1.1176 2.4384,-2.4384 z m -0.4572,32.3596 v -22.4028 c 0,-1.0668 -0.8636,-1.9812 -1.9812,-1.9812 -1.1176,0 -1.9812,0.9144 -1.9812,1.9812 v 22.4028 c 0,1.1176 0.8636,1.9812 1.9812,1.9812 1.1176,0 1.9812,-0.8636 1.9812,-1.9812 z" />
          <path
             inkscape:connector-curvature="0"
             id="path877"
             style="font-style:normal;font-variant:normal;font-weight:normal;font-stretch:normal;font-size:50.79999924px;line-height:1.25;font-family:'Blogger Sans';-inkscape-font-specification:'Blogger Sans, Normal';font-variant-ligatures:normal;font-variant-caps:normal;font-variant-numeric:normal;font-feature-settings:normal;text-align:start;letter-spacing:0px;word-spacing:0px;writing-mode:lr-tb;text-anchor:start;fill:#000000;fill-opacity:1;stroke:none;stroke-width:0.07000434"
             d="m 219.36784,118.79179 c 0,-0.4064 -0.0508,-0.9144 -0.1524,-1.4732 1.7272,-1.3208 3.6576,-2.1336 5.6388,-2.1336 3.048,0 4.6736,2.1844 4.6736,6.0452 v 14.8336 c 0,1.0668 0.7112,1.9304 1.9812,1.9304 1.27,0 1.9812,-0.8636 1.9812,-1.9304 v -14.8336 c 0,-5.7404 -2.6924,-9.6012 -8.0772,-9.6012 -2.4384,0 -5.0292,0.7112 -7.2644,2.286 -0.5588,-0.8636 -1.2192,-1.4732 -2.1336,-1.4732 -1.0668,0 -1.8796,0.762 -1.8796,1.778 0,0.508 0.254,0.8128 0.3556,1.016 0.4572,0.762 0.9144,0.762 0.9144,3.556 v 17.272 c 0,1.0668 0.6604,1.9304 1.9812,1.9304 1.3208,0 1.9812,-0.8636 1.9812,-1.9304 z" />
          <path
             inkscape:connector-curvature="0"
             id="path879"
             style="font-style:normal;font-variant:normal;font-weight:normal;font-stretch:normal;font-size:50.79999924px;line-height:1.25;font-family:'Blogger Sans';-inkscape-font-specification:'Blogger Sans, Normal';font-variant-ligatures:normal;font-variant-caps:normal;font-variant-numeric:normal;font-feature-settings:normal;text-align:start;letter-spacing:0px;word-spacing:0px;writing-mode:lr-tb;text-anchor:start;fill:#000000;fill-opacity:1;stroke:none;stroke-width:0.07000434"
             d="m 244.45539,111.73059 c -6.4516,0 -8.4836,4.2164 -8.4836,10.2616 v 6.4516 c 0,5.6896 2.7432,9.6012 8.0772,9.6012 2.54,0 4.9784,-0.8636 7.2136,-1.9812 0.6096,0.9652 1.524,1.6256 2.6924,1.6256 0.8636,0 1.778,-0.7112 1.778,-1.778 0,-0.4572 -0.1524,-0.7112 -0.3556,-1.016 -1.016,-0.762 -1.3208,-1.6256 -1.3208,-3.048 v -29.1084 c 0,-1.0668 -0.7112,-1.9304 -1.9812,-1.9304 -1.27,0 -1.9812,0.8636 -1.9812,1.9304 v 9.9568 c -1.8288,-0.6096 -3.9624,-0.9652 -5.6388,-0.9652 z m 5.6388,20.1168 c 0,0.3556 0,0.762 0.1016,1.1684 -1.7272,0.9144 -3.7084,1.4732 -5.334,1.4732 -3.3528,0 -4.9276,-2.0828 -4.9276,-6.0452 v -6.4516 c 0,-4.7244 1.3208,-6.8072 5.0292,-6.8072 1.2192,0 3.4544,0.3556 5.1308,1.0668 z" />
          <path
             inkscape:connector-curvature="0"
             id="path881"
             style="font-style:normal;font-variant:normal;font-weight:normal;font-stretch:normal;font-size:50.79999924px;line-height:1.25;font-family:'Blogger Sans';-inkscape-font-specification:'Blogger Sans, Normal';font-variant-ligatures:normal;font-variant-caps:normal;font-variant-numeric:normal;font-feature-settings:normal;text-align:start;letter-spacing:0px;word-spacing:0px;writing-mode:lr-tb;text-anchor:start;fill:#000000;fill-opacity:1;stroke:none;stroke-width:0.07000434"
             d="m 257.47871,118.84259 c 0,6.7056 6.7564,7.0612 9.9568,8.7884 1.016,0.5588 1.8796,1.3208 1.8796,3.1496 0,2.6416 -1.8796,3.7592 -4.6736,3.7592 -2.032,0 -3.6576,-0.6096 -5.08,-1.1684 -0.1524,-0.0508 -0.2032,-0.1016 -0.508,-0.1016 -1.2192,0 -1.8796,0.9652 -1.8796,1.8288 0,2.3368 4.8768,2.9464 7.4676,2.9464 5.6388,0 8.5344,-2.8448 8.5344,-7.4168 0,-6.604 -5.9436,-7.0612 -9.4488,-8.7884 -1.7272,-0.8636 -2.3876,-1.6764 -2.3876,-3.2512 0,-2.3368 1.4224,-3.556 4.5212,-3.556 1.8288,0 2.794,0.4064 3.8608,0.9144 0.3048,0.1524 0.5588,0.254 0.9144,0.254 1.0668,0 1.8288,-0.8636 1.8288,-1.8288 0,-2.1336 -4.1148,-2.8448 -6.7564,-2.8448 -5.3848,0 -8.2296,2.9464 -8.2296,7.3152 z" />
        </g>
      </g>
    </g>
  </g>
</svg>
